<svg version="1.2" xmlns="http://www.w3.org/2000/svg" viewBox="0 0 1130 390" width="226" height="78">
	<title>logo-svg</title>
	<style>
		tspan { white-space:pre } 
		.s0 { fill: #000000 } 
		.s1 { fill: #ffffff } 
		.t2 { font-size: 147px;text-transform: uppercase;fill: #ffffff;font-weight: 700;font-family: "Arial-BoldMT", "Arial" } 
	</style>
	<path id="Layer" fill-rule="evenodd" class="s0" d="m244.9 354c1.3-1.3 2.6-1.7 3.4-2.2 11-7.6 17.8-18.2 22.9-30.5q6.8-16.9 8.9-35.2 1.7-13.9 3-28.4c0.4-8-2.6-15.2-7.3-22-5-6.4-11-11.9-17.3-17.4-0.9-0.4-1.7-0.4-2.6-0.8 0 0.8-0.4 1.7-0.4 2.5 0 3 0.4 5.9-0.4 8.9-0.4 1.7-2.1 3.8-3.4 4.7-1.7 1.2-2.5 2.1-3.4 3.8-1.7 7.2-3.8 14.4-5.5 21.6-3 11.9-10.6 18.2-22.5 20.4-9.3 1.2-19 1.7-28.4 0.8q-1.2 0-2.5 0c0 0.9 0 1.7 0.4 2.1 1.3 5.5 3 11 4.7 16.6 2.1 9.7 3.4 19.5 1.7 29.6-1.3 6-3.8 11.1-10.2 14-0.4 0-1.3 0.4-1.7 1.3-8 11.4-19.5 17.4-33 19.9-9.8 2.1-19.1-0.4-28-5.5-6.4-3.4-12.3-6.8-16.1-12.7-1.3-1.7-2.5-3-4.2-3.8-1.7-1.3-3.8-3-5.1-4.7-3.4-4.7-4.3-9.7-4.3-15.3-0.4-11.8 2.2-22.8 5.6-33.4q0.8-3.9 2.1-7.7c-0.9 0-1.7-0.4-2.1-0.4-8.5 0-17 0-25.5-0.4-6.3-0.4-11.8-2.1-16.9-6-6-4.6-8.1-11.4-9.8-18.2q-2.5-9.3-5.1-18.6c-0.4-1.3-1.2-2.2-2.1-2.6-2.9-1.2-4.2-3.8-4.6-6.8-0.5-2.5 0-5-0.5-8 0-0.9 0-1.3 0-2.1-0.8 0.4-1.6 0.4-2.1 0.8-5.5 5.1-11 10.2-16.1 15.7-6.3 6.8-9.7 14.8-8.9 24.2 0.9 9.3 1.7 18.2 2.6 27.5 1.2 10.2 3.4 19.9 6.7 29.7 4.7 12.7 11.1 25 22.1 33.9 2.1 1.3 4.2 3 6.3 4.2q0 0 0.5-0.4 0.4-9.3 0.8-18.6 0.4 0 0.9 0 0.4 0.8 0.8 1.2c3 8.5 7.2 16.6 13.1 22.9 2.2 2.6 4.7 5.1 7.7 6.4q18.4 7.6 36.8 14c11.5 3.8 23.3 6.3 34.8 9.7 1.7 0.5 3.8 0.9 5.5 0.5 8.5-1.7 16.9-3.4 25.4-6.4 14.4-4.7 28.8-9.8 43.2-14.8 6-2.2 11.5-5.1 15.3-10.2 5.1-6.8 9.3-14 12.3-21.6q0.4-0.9 0.8-1.7 0.4 0 0.4 0c0.5 6.3 0.9 12.7 1.3 19.5z"/>
	<path id="Layer" fill-rule="evenodd" class="s0" d="m42.4 210.7q0 0.4 0 0.8c1.7 0.5 2.9 0.5 4.2 0.5q2.6 0 5.1 0 25.4 0 50.4 0.4c9.3 0.4 18.7 2.1 27.6 4.2 9.3 2.1 18.2 2.6 27.5 0.4 6.4-1.2 12.7-2.9 19.1-3.8q12.3-1.2 24.1-1.2c14.9 0 29.7 0 44.1 0.4 1.3 0 2.5-0.9 3.4-1.3-0.4-0.8-0.9-1.7-1.7-2.5-10.6-8.5-21.2-17-31.8-25.9-11.9-10.2-25.4-16.9-41.1-18.6-19.9-2.6-39.8-2.6-59.7 0.4q-18.7 3.4-33.5 15.2-18.2 14.5-36 29.3c-0.5 0.4-1.3 1.3-1.7 1.7z"/>
	<path id="Layer" fill-rule="evenodd" class="s0" d="m189 317.5c-0.9-4.2-1.3-9.3-1.7-14-1.7-8-3-16.1-6.8-23.7-0.4-0.9-1.3-1.7-2.1-1.7-5.5-1.7-10.2-4.7-13.1-9.3-3.4-5.1-5.6-10.6-8.5-15.7-2.1-4.3-4.3-8.5-8.5-11.5-2.1-1.2-4.2-1.2-5.9 0-2.1 2.1-4.3 3.8-5.5 6.4-3 5.1-5.5 10.6-8.5 16.1-3.4 6.8-8.9 11.9-16.5 14-0.9 0-1.7 0.8-2.2 1.7-5.5 13.1-8 27.1-7.6 41.1 0.4 10.6 6.8 18.2 18.7 17.8 4.6 0 9.3-1.3 13.9-2.1 6.4-0.9 8.1-4.3 8.1-10.6 0-0.9-0.9-2.1-1.7-2.6-6.8-4.6-14-8.9-21.2-13.5-0.8-0.4-1.3-2.1-1.3-3.4 0.5-5.9 2.6-11.5 7.2-15.7 9.4-7.6 19.5-9.3 31-5.1 9.3 3.8 14.4 10.6 15.2 20.8 0 1.7-0.4 3-1.7 3.8q-10.6 6.4-21.1 13.1c-0.5 0.5-1.3 0.9-1.3 1.3-1.7 3.8 1.7 10.6 5.9 11.5 3 0.8 5.5 1.7 8.5 2.1 5.9 0.8 11.4 1.7 16.5-1.3 7.6-3.8 9.8-11 10.2-19.5z"/>
	<path id="Layer" fill-rule="evenodd" class="s0" d="m118.2 113.2c0 7.2 0.9 14.8 3.4 21.6 3.4 8.5 8.9 14.8 18.2 16.5 10.6 1.7 19.5-0.8 25.9-10.1 4.6-7.2 6.3-15.7 6.3-24.2q0.5-19.1-7.2-36.9c-2.9-6.8-6.3-13.1-12.7-16.9-3.8-2.6-8-3-11.8-0.9-4.7 2.1-7.7 5.5-10.6 9.8-7.7 12.3-10.6 26.2-11.5 41.1z"/>
	<path id="Layer" fill-rule="evenodd" class="s0" d="m107.6 116.6c-0.4-8.1-0.8-15.3-1.7-22.5-0.4-5.1-1.7-9.7-4.2-14-2.5-3.8-5.9-5.9-10.2-4.6-2.9 0.8-5.5 2.1-7.6 4.2-10.2 8.5-17 19.5-21.2 32.2-1.7 5.9-2.5 12.7-3.4 19.1-0.8 8.9-0.4 18.2 3.4 26.7 3 7.6 10.2 11.9 17 11q6.3-0.8 11-4.6c8-6 12.7-14 14.4-23.8 1.7-8 2.1-16.5 2.5-23.7z"/>
	<path id="Layer" fill-rule="evenodd" class="s0" d="m231.4 135.2c0-6.3-0.9-14.4-3.4-22-2.6-9.8-7.7-18.2-13.6-25.9-3.4-4.6-7.2-8.5-12.7-11-3.4-1.7-6.8-1.7-9.8 0.9-3.3 2.5-5 6.3-5.9 10.1-2.1 8.1-2.9 15.7-2.5 23.8 0 10.6-0.4 21.6 2.5 32.2 2.6 8.9 7.2 16.5 15.3 21.6 10.6 7.2 21.6 4.2 26.7-7.6 2.9-6.4 3.4-13.2 3.4-22.1z"/>
	<path id="Layer" fill-rule="evenodd" class="s0" d="m241.9 159.8q-0.4 0-0.8 0c1.3 7.6 1.7 15.7 3 23.3 3.8 14.9 19.5 25 34.3 22.1 5.5-0.9 9.3-3.8 10.6-9.8q0.4-2.5 0.8-5.5c1.7-9.7 0.5-19.1-2.5-28.4-3.8-11.9-10.6-22-19.1-30.9-2.5-2.6-5.9-5.1-9.3-6.8-3.8-2.1-8.1-0.9-10.2 2.5-1.7 2.6-2.9 5.1-3.8 8.1-2.5 8-3 16.9-3 25.4z"/>
	<path id="Layer" fill-rule="evenodd" class="s0" d="m48.7 156.8c-0.4-4.2-0.8-11-2.1-17.8-0.4-4.2-2.1-8.4-4.2-11.8-2.6-4.7-6.8-5.5-11.5-3-1.7 0.9-3.4 1.7-4.6 3-3.4 3.4-7.2 7.2-10.2 11-13.1 17-19.1 35.2-14.4 56.8q1.3 8.3 10.2 10.2c13.5 2.9 29.2-6 33.9-19.5 2.5-8.5 2.5-17.4 2.9-28.9z"/>
	<path id="Layer" fill-rule="evenodd" class="s0" d="m76.3 270.5c4.2 0.4 7.6 0.4 11.4 0.8 1.7 0 2.1-0.8 3-2.1q1.2-4.3 2.9-8.1 6.4-18.6 13.2-36.9c0.8-2.1 0.4-2.5-1.7-2.5q-3.8-0.4-7.6-0.8c-2.2 0-3 0.4-3.9 2.5q-7.6 20.3-15.2 41.1c-0.4 1.7-1.3 3.8-2.1 6z"/>
	<path id="Layer" fill-rule="evenodd" class="s0" d="m215.3 220.9q-6.4 0-11.5 0c-1.7 0-2.1 0.4-2.5 1.7q-2.6 7.2-5.5 14.4-5.5 15.2-11.1 30.1c-0.8 1.7-0.4 2.5 1.7 2.9q4.3 0.5 8.5 0.9c1.7 0 2.1-0.4 3-2.1q6.8-19.1 14-38.2c1.2-3 2.1-6.4 3.4-9.7z"/>
	<path id="Layer" fill-rule="evenodd" class="s0" d="m154.7 39.8c-0.5-9.7-2.6-19.9-4.7-29.6q-1.3-4.3-3-8.9c-0.8-1.7-2.5-1.7-3.4 0-0.8 1.7-1.7 3.4-2.1 5.1-1.7 8.9-3.4 17.3-4.6 25.8-0.9 5.1-0.5 9.8-0.5 14.4 0 1.7 0.9 3 2.6 3q6.3 0 12.7 0 2.1-0.4 2.5-2.5 0-3.9 0.5-7.3z"/>
	<path id="Layer" fill-rule="evenodd" class="s0" d="m259.3 106c0-0.4-0.4-1.3-0.4-2.1-1.7-9.8-5.1-18.7-9.7-27.2-3-5.1-6.4-10.1-9.8-15.2-0.4-0.9-1.3-0.9-2.1-1.3 0 0.8-0.4 1.7-0.4 2.1q2.9 18.7 5.5 37.3c1.2 8.9 1.2 8.9 10.1 11.9 5.1 1.7 6.8 0.8 6.8-5.5z"/>
	<path id="Layer" fill-rule="evenodd" class="s0" d="m31.4 106.8q0 0.5 0 1.3c0 3.8 1.2 4.7 5 3.8 3.4-0.8 6.4-2.5 9.4-3.8 0.8 0 1.2-0.8 1.2-1.7q0.5-2.5 0.9-5.5 1.7-11.5 3.4-22.5 1.2-8 2.1-16.1c0.4-0.8 0-1.3-0.4-2.1-0.5 0.4-1.3 0.4-1.7 0.8q-1.3 1.3-2.1 2.6c-5.1 7.2-8.9 14.8-12.3 23.3-3 6.4-5.1 12.7-5.5 19.9z"/>
	<path id="Layer" fill-rule="evenodd" class="s0" d="m181.8 17.8q-0.4 0.4-1.3 0.9c0 0.4 0 1.2 0 1.6q3.4 21.2 7.2 42.4c0 0.9 0.4 1.7 1.3 2.2 3.4 0.8 7.2 2.1 10.6 2.9 2.5 0.5 3.8-0.8 3.8-3.4 0-2.9-0.4-6.3-1.3-9.3-2.9-11-8.5-21.2-14.8-30.5-1.7-2.6-3.8-4.7-5.5-6.8z"/>
	<path id="Layer" fill-rule="evenodd" class="s0" d="m86.9 61.5c0 5.5 1.2 7.2 5 6.3 3.4-0.8 6.4-2.1 9.8-2.9 0.4-0.5 1.3-1.7 1.3-2.2q2.1-12.7 4.2-25 1.7-8.9 3-17.4c0-0.4-0.5-1.2-0.5-1.6-0.8 0-1.2 0-1.6 0.4q-1.7 1.2-3 2.9c-5.1 7.2-9.3 14.9-13.2 22.5-2.5 5.9-4.6 11.5-5 17z"/>
	<path id="Layer" fill-rule="evenodd" class="s0" d="m115.3 344.6q0 0.5 0 0.5 0.4 0.4 0.8 0.8c5.9 5.1 12.7 8.1 19.9 10.2 4.7 1.3 9.8 2.1 14.8 0.8 7.3-1.7 14-4.2 20.4-8.4q2.1-1.7 4.6-3.4c-0.8-0.5-1.2-0.5-1.6-0.5-6.8 0.9-13.6 0-20.4-1.2q-8.9-1.3-17.8 0.4c-6.3 1.3-12.7 1.7-19.5 0.8q-0.4 0-1.2 0z"/>
	<path id="Layer" fill-rule="evenodd" class="s0" d="m91.1 220.9c-2.5 0-4.7-0.5-6.8 0-0.8 0-1.2 0.8-1.7 1.2-0.8 1.7-1.2 3.4-2.1 5.1q-7.2 19.9-14.4 39.4c0 0.9 0 1.7 0 2.2 2.1 0.4 4.2 1.2 6.4 1.2 0.4 0 1.2-1.7 1.7-2.5q6.3-17.8 13.1-35.6c1.3-3.4 2.5-7.2 3.8-11z"/>
	<path id="Layer" fill-rule="evenodd" class="s0" d="m198.3 220.9c-2.1 0-4.2 0-5.9 0-1.7 0-2.6 0.8-3 2.5q-6.8 18.7-14 37.3c-0.8 2.1-0.4 3.8 1.7 5.1q0.9 0.4 1.7 1.3c1.7 1.2 2.6 0.8 3-1.3q5.1-14 10.1-28c2.2-5.5 4.3-11 6.4-16.9z"/>
	<path id="Layer" fill-rule="evenodd" class="s0" d="m63.1 266.2c5.5-15.2 11.1-30.1 16.1-44.9-3.4-0.9-3.8-0.9-4.6 2.1q-6.8 18.7-13.6 36.9c-1.3 2.9-1.3 3.4 2.1 5.9z"/>
	<path id="Layer" fill-rule="evenodd" class="s0" d="m162.3 296.3q0.4 0 0.4-0.4c-0.8-0.9-1.7-2.1-3-3-5.9-3.4-12.2-3.8-19-2.9-3.4 0.4-6.8 2.1-10.2 3.3-2.1 0.9-2.1 1.7-2.1 3q16.9-1.7 33.9 0z"/>
	<path id="Layer" fill-rule="evenodd" class="s0" d="m172.5 260.3c4.6-13.2 9.3-25.9 13.9-38.6-3.8-0.4-4.2 0-5.5 3.4-3.4 9.3-6.7 18.6-10.1 28.4-1.3 2.5-0.5 4.2 1.7 6.8z"/>
	<path id="Layer" fill-rule="evenodd" class="s1" d="m244.9 354c-0.4-6.8-0.8-13.2-1.3-19.5q0 0-0.4 0-0.4 0.8-0.8 1.7c-3 8-7.2 14.8-12.3 21.6-3.8 5.1-9.3 8-15.3 10.2-14.4 5-28.8 10.1-43.2 14.8-8.5 3-16.9 4.7-25.4 6.4-1.7 0.4-3.8 0-5.5-0.5-11.5-3.4-23.3-5.9-34.8-9.7q-18.4-6.4-36.8-14c-3-1.3-5.5-3.8-7.7-6.4-5.9-6.3-10.1-14.4-13.1-22.9q-0.4-0.4-0.8-1.2-0.5 0-0.9 0-0.4 9.3-0.8 18.6-0.5 0.4-0.5 0.4c-2.1-1.2-4.2-2.9-6.3-4.2-11-8.9-17.4-21.2-22.1-33.9-3.3-9.8-5.5-19.5-6.7-29.7-0.9-9.3-1.7-18.2-2.6-27.5-0.8-9.4 2.6-17.4 8.9-24.2 5.1-5.5 10.6-10.6 16.1-15.7 0.5-0.4 1.3-0.4 2.1-0.8 0 0.8 0 1.2 0 2.1 0.5 3 0 5.5 0.5 8 0.4 3 1.7 5.6 4.6 6.8 0.9 0.4 1.7 1.3 2.1 2.6q2.6 9.3 5.1 18.6c1.7 6.8 3.8 13.6 9.8 18.2 5.1 3.9 10.6 5.6 16.9 6 8.5 0.4 17 0.4 25.5 0.4 0.4 0 1.2 0.4 2.1 0.4q-1.3 3.8-2.1 7.7c-3.4 10.6-6 21.6-5.6 33.4 0 5.6 0.9 10.6 4.3 15.3 1.3 1.7 3.4 3.4 5.1 4.7 1.7 0.8 2.9 2.1 4.2 3.8 3.8 5.9 9.7 9.3 16.1 12.7 8.9 5.1 18.2 7.6 28 5.5 13.5-2.5 25-8.5 33-19.9 0.4-0.9 1.3-1.3 1.7-1.3 6.4-2.9 8.9-8 10.2-14 1.7-10.1 0.4-19.9-1.7-29.6-1.7-5.6-3.4-11.1-4.7-16.6-0.4-0.4-0.4-1.2-0.4-2.1q1.3 0 2.5 0c9.4 0.9 19.1 0.4 28.4-0.8 11.9-2.2 19.5-8.5 22.5-20.4 1.7-7.2 3.8-14.4 5.9-21.6 0.5-1.7 1.3-2.6 3-3.8 1.3-0.9 3-3 3.4-4.7 0.8-3 0.4-5.9 0.4-8.9 0-0.8 0.4-1.7 0.4-2.5 0.9 0.4 1.7 0.4 2.6 0.8 6.3 5.5 12.3 11 17.3 17.4 4.7 6.8 7.7 14 7.3 22q-1.3 14.5-3 28.4-2.1 18.3-8.9 35.2c-5.1 12.3-11.9 22.9-22.9 30.5-0.8 0.5-2.1 0.9-3.4 2.2z"/>
	<path id="Layer" fill-rule="evenodd" class="s1" d="m42.4 210.7c0.4-0.4 1.2-1.3 1.7-1.7q17.8-14.8 36-29.3 14.8-11.8 33.5-15.2c19.9-3 39.8-3 59.7-0.4 15.7 1.7 29.2 8.4 41.1 18.6 10.6 8.9 21.2 17.4 31.8 25.9 0.8 0.8 1.3 1.7 1.7 2.5-0.9 0.4-2.1 1.3-3.4 1.3-14.4-0.4-29.2-0.4-44.1-0.4q-11.8 0-24.1 1.2c-6.4 0.9-12.7 2.6-19.1 3.8-9.3 2.2-18.2 1.7-27.5-0.4-8.9-2.1-18.3-3.8-27.6-4.2q-25-0.4-50.4-0.4-2.5 0-5.1 0c-1.3 0-2.5 0-4.2-0.5q0-0.4 0-0.8z"/>
	<path id="Layer" fill-rule="evenodd" class="s1" d="m189 317.5c-0.4 8.5-2.6 15.7-10.2 19.5-5.1 3-10.6 2.1-16.5 1.3-3-0.4-5.5-1.3-8.5-2.1-4.2-0.9-7.6-7.7-5.9-11.5 0-0.4 0.8-0.8 1.3-1.3q10.5-6.7 21.1-13.1c1.3-0.8 1.7-2.1 1.7-3.8-0.8-10.2-5.9-17-15.2-20.8-11.5-4.2-21.6-2.5-31 5.1-4.6 4.2-6.7 9.8-7.2 15.7 0 1.3 0.5 3 1.3 3.4 7.2 4.6 14.4 8.9 21.2 13.5 0.8 0.5 1.7 1.7 1.7 2.6 0 6.3-1.7 9.7-8.1 10.6-4.6 0.8-9.3 2.1-13.9 2.1-11.9 0.4-18.3-7.2-18.7-17.8-0.4-14 2.1-28 7.6-41.1 0.5-0.9 1.3-1.7 2.2-1.7 7.6-2.1 13.1-7.2 16.5-14 3-5.5 5.5-11 8.5-16.1 1.2-2.6 3.4-4.3 5.5-6.4 1.7-1.2 3.8-1.2 5.9 0 4.2 3 6.4 7.2 8.5 11.5 2.9 5.1 5.1 10.6 8.5 15.7 2.9 4.6 7.6 7.6 13.1 9.3 0.8 0 1.7 0.8 2.1 1.7 3.8 7.6 5.1 15.7 6.8 23.7 0.4 4.7 0.8 9.8 1.7 14z"/>
	<path id="Layer" fill-rule="evenodd" class="s1" d="m118.2 113.2c0.9-14.9 3.8-28.8 11.9-41.1 2.5-4.3 5.5-7.7 10.2-9.8 3.8-2.1 8-1.7 11.8 0.9 6.4 3.8 9.8 10.1 12.7 16.9q7.7 17.8 7.2 36.9c0 8.5-1.7 17-6.3 24.2-6.4 9.3-15.3 11.8-25.9 10.1-9.3-1.7-14.8-8-18.2-16.5-2.5-6.8-3.4-14.4-3.4-21.6z"/>
	<path id="Layer" fill-rule="evenodd" class="s1" d="m107.6 116.6c-0.4 7.2-0.8 15.7-2.5 23.7-1.7 9.8-6.4 17.8-14.4 23.8q-4.7 3.8-11 4.6c-6.8 0.9-14-3.4-17-11-3.8-8.5-4.2-17.8-3.4-26.7 0.9-6.4 1.7-13.2 3.4-19.1 4.2-12.7 11-23.7 21.2-32.2 2.1-2.1 4.7-3.4 7.6-4.2 4.3-1.3 7.7 0.8 10.2 4.6 2.5 4.3 3.8 8.9 4.2 14 0.9 7.2 1.3 14.4 1.7 22.5z"/>
	<path id="Layer" fill-rule="evenodd" class="s1" d="m231.4 135.2c0 8.9-0.5 15.7-3.4 22.1-5.1 11.8-16.1 14.8-26.7 7.6-8.1-5.1-12.7-12.7-15.3-21.6-2.9-10.6-2.5-21.6-2.5-32.2-0.4-8.1 0.4-15.7 2.5-23.8 0.9-3.8 2.6-7.6 5.9-10.1 3-2.6 6.4-2.6 9.8-0.9 5.5 2.5 9.3 6.4 12.7 11 5.9 7.7 11 16.1 13.6 25.9 2.5 7.6 3.4 15.7 3.4 22z"/>
	<path id="Layer" fill-rule="evenodd" class="s1" d="m241.9 159.8c0-8.5 0.5-17.4 3-25.4 0.9-3 2.1-5.5 3.8-8.1 2.1-3.4 6.4-4.6 10.2-2.5 3.4 1.7 6.8 4.2 9.3 6.8 8.5 8.9 15.3 19 19.1 30.9 3 9.3 4.2 18.7 2.5 28.4q-0.4 3-0.8 5.5c-1.3 6-5.1 8.9-10.6 9.8-14.8 2.9-30.9-7.2-34.3-22.5-1.3-7.2-1.7-15.3-3-22.9q0.4 0 0.8 0z"/>
	<path id="Layer" fill-rule="evenodd" class="s1" d="m48.7 156.8c-0.4 11.5-0.4 20.4-2.9 28.9-4.7 13.5-20.4 22.4-33.9 19.5q-8.9-1.9-10.2-10.2c-4.7-21.2 1.3-39.8 14.4-56.8 3-3.8 6.8-7.6 10.2-11 1.2-1.3 2.9-2.1 4.6-3 4.7-2.5 8.9-1.7 11.5 3 2.1 3.4 3.8 7.6 4.2 11.8 1.3 6.8 1.7 13.6 2.1 17.8z"/>
	<path id="Layer" fill-rule="evenodd" class="s1" d="m76.3 270.5c0.8-2.2 1.7-4.3 2.1-6q7.6-20.8 15.2-41.1c0.9-2.1 1.7-2.5 3.9-2.5q3.8 0.4 7.6 0.8c2.1 0 2.5 0.4 1.7 2.6q-6.8 18.2-13.2 36.8-1.7 3.8-2.9 8.1c-0.9 1.3-1.3 2.1-3 2.1-3.8-0.4-7.2-0.4-11.4-0.8z"/>
	<path id="Layer" fill-rule="evenodd" class="s1" d="m215.3 220.9c-1.3 3.3-2.2 6.7-3.4 9.7q-7.2 19.1-14 38.2c-0.9 1.7-1.3 2.1-3 2.1q-4.2-0.4-8.5-0.9c-2.1-0.4-2.5-1.2-1.7-2.9q5.6-14.9 11.1-30.1 2.5-7.2 5.5-14.4c0.4-1.3 0.8-1.7 2.5-1.7q5.1 0 11.5 0z"/>
	<path id="Layer" fill-rule="evenodd" class="s1" d="m154.7 39.8q-0.5 3.4-0.5 7.3-0.4 2.1-2.5 2.5-6.4 0-12.7 0c-1.7 0-2.6-1.3-2.6-3 0-4.6-0.4-9.3 0.5-14.4 1.2-8.5 2.9-16.9 4.6-25.8 0.4-1.7 1.3-3.4 2.1-5.1 0.9-1.7 2.6-1.7 3.4 0q1.7 4.6 3 8.9c2.1 9.7 4.2 19.9 4.7 29.6z"/>
	<path id="Layer" fill-rule="evenodd" class="s1" d="m259.3 106c0 6.3-1.7 7.2-6.8 5.5-8.9-3-8.9-3-10.1-11.9q-2.6-18.6-5.5-37.3c0-0.4 0.4-1.3 0.4-2.1 0.8 0.4 1.7 0.4 2.1 1.3 3.4 5.1 6.8 10.1 9.8 15.2 4.6 8.5 8 17.4 9.7 27.2 0 0.8 0.4 1.7 0.4 2.1z"/>
	<path id="Layer" fill-rule="evenodd" class="s1" d="m31.4 106.8c0.4-7.2 2.5-13.5 5.5-19.9 3.4-8.5 7.2-16.1 12.3-23.3q0.8-1.3 2.1-2.6c0.4-0.4 1.2-0.4 1.7-0.8 0.4 0.8 0.8 1.3 0.4 2.1q-0.9 8.1-2.1 16.1-1.7 11-3.4 22.5-0.4 3-0.9 5.5c0 0.9-0.4 1.7-1.2 1.7-3 1.3-6 3-9.4 3.8-3.8 0.9-5 0-5-3.8q0-0.8 0-1.3z"/>
	<path id="Layer" fill-rule="evenodd" class="s1" d="m181.8 17.8c1.7 2.1 3.8 4.2 5.5 6.8 6.3 9.3 11.9 19.5 14.8 30.5 0.9 3 1.3 6.4 1.3 9.3 0 2.6-1.3 3.8-3.8 3.4-3.4-0.8-7.2-2.1-10.6-2.9-0.9-0.5-1.3-1.3-1.3-2.2q-3.8-21.2-7.2-42.4c0-0.4 0-1.2 0-1.6q0.9-0.5 1.3-0.9z"/>
	<path id="Layer" fill-rule="evenodd" class="s1" d="m86.9 61.5c0.4-5.5 2.5-11.1 5-17 3.4-7.6 8.1-15.3 13.2-22.5q1.3-1.7 3-2.9c0.4-0.4 0.8-0.4 1.6-0.4 0 0.4 0.5 1.2 0.5 1.6q-1.3 8.5-3 17.4-2.1 12.3-4.2 25c0 0.5-0.9 1.7-1.3 2.2-3.4 0.8-6.4 2.1-9.8 2.9-3.8 0.9-5-0.8-5-6.3z"/>
	<path id="Layer" fill-rule="evenodd" class="s1" d="m115.3 344.6q0.8 0 1.2 0c6.8 0.9 13.2 0.5 19.5-0.8q8.9-1.7 17.8-0.4c6.8 1.2 13.6 2.1 20.4 1.2 0.4 0 0.8 0 1.6 0.5q-2.5 1.7-4.6 3.4c-6.4 4.2-13.1 6.7-20.4 8.4-5 1.3-10.1 0.5-14.8-0.8-7.2-2.1-14-5.1-19.9-10.2q-0.4-0.4-0.8-0.8 0 0 0-0.5z"/>
	<path id="Layer" fill-rule="evenodd" class="s1" d="m91.1 220.9c-1.3 3.8-2.5 7.6-3.8 11q-6.8 17.8-13.1 35.6c-0.5 0.8-1.3 2.5-1.7 2.5-2.2 0-4.3-0.8-6.4-1.2 0-0.5 0-1.3 0-2.2q7.2-19.5 14.4-39.4c0.9-1.7 1.3-3.4 2.1-5.1 0.5-0.4 0.9-1.2 1.7-1.2 2.1-0.5 4.3 0 6.8 0z"/>
	<path id="Layer" fill-rule="evenodd" class="s1" d="m198.3 220.9c-2.1 5.9-4.2 11.4-6.4 16.9q-5 14-10.1 28c-0.4 2.1-1.3 2.5-3 1.3q-0.8-0.9-1.7-1.3c-2.1-1.3-2.5-3-1.7-5.1q7.2-18.6 14-37.3c0.4-1.7 1.3-2.5 3-2.5 1.7 0 3.8 0 5.9 0z"/>
	<path id="Layer" fill-rule="evenodd" class="s1" d="m63.1 266.2c-3.4-2.5-3.4-3-2.1-5.9q6.8-18.2 13.6-36.9c0.8-3 1.2-3 4.6-2.1-5 14.8-10.6 29.7-16.1 44.9z"/>
	<path id="Layer" fill-rule="evenodd" class="s1" d="m162.3 296.3q-17-1.7-33.9 0c0-1.3 0-2.1 2.1-3 3.4-1.2 6.8-2.9 10.2-3.3 6.8-0.9 13.1-0.5 19 2.9 1.3 0.9 2.2 2.1 3 3q0 0.4-0.4 0.4z"/>
	<path id="Layer" fill-rule="evenodd" class="s1" d="m172.5 260.3c-2.2-2.6-3-4.3-1.7-6.8 3.4-9.8 6.7-19.1 10.1-28.4 1.3-3.4 1.7-3.8 5.5-3.4-4.6 12.7-9.3 25.4-13.9 38.6z"/>
	<text id="Beardog Digital" style="transform: matrix(1.069,0,0,1.069,724.377,157.845)" >
		<tspan x="-386.4" y="0" class="t2">B</tspan><tspan  y="0" class="t2">E</tspan><tspan  y="0" class="t2">A</tspan><tspan  y="0" class="t2">R</tspan><tspan  y="0" class="t2">D</tspan><tspan  y="0" class="t2">O</tspan><tspan  y="0" class="t2">G</tspan><tspan  y="0" class="t2">
</tspan>
		<tspan x="-299.5" y="175.9" class="t2">D</tspan><tspan  y="175.9" class="t2">I</tspan><tspan  y="175.9" class="t2">G</tspan><tspan  y="175.9" class="t2">I</tspan><tspan  y="175.9" class="t2">T</tspan><tspan  y="175.9" class="t2">A</tspan><tspan  y="175.9" class="t2">L</tspan><tspan  y="175.9" class="t2">
</tspan>
	</text>
</svg>